<?xml version="1.0" encoding="UTF-8"?>
<svg id="Layer_2" data-name="Layer 2" xmlns="http://www.w3.org/2000/svg" viewBox="0 0 139.81 109.79">
  <defs>
    <style>
      .cls-1 {
        fill: #7b3fe4;
      }

      .cls-1, .cls-2 {
        stroke-width: 0px;
      }

      .cls-2 {
        fill: #f68938;
      }
    </style>
  </defs>
  <g id="Layer_1-2" data-name="Layer 1">
    <g>
      <path class="cls-2" d="m76.72,22.27l-6.61-2.88c-.49-.21-1.05-.17-1.49.13-.45.29-.71.79-.71,1.32v12.15c0,.87.7,1.58,1.58,1.58s1.58-.71,1.58-1.58v-5.36l5.66-2.47c.57-.25.95-.82.95-1.45s-.37-1.2-.95-1.45Z"/>
      <path class="cls-1" d="m69.48,0c-18.76,0-34.02,15.26-34.02,34.01,0,16.08,11.21,29.57,26.22,33.11,1.55.24,2.74-1.11,2.74-2.23v-8.23c0-2.79,2.26-5.05,5.05-5.05s5.05,2.26,5.05,5.05v8.23c0,1.12,1.2,2.47,2.74,2.22,15.01-3.54,26.22-17.03,26.22-33.11C103.5,15.26,88.24,0,69.48,0Zm20.67,52.42c-.93.9-2.42.35-2.79-.83l-2.73-18.47c-.09-.62-.62-1.08-1.25-1.08h-5.05c-.7,0-1.26.56-1.26,1.26v3.79h-3.79v-3.79c0-.7-.56-1.26-1.26-1.26h-5.05c-.7,0-1.26.56-1.26,1.26v3.79h-3.79v-3.79c0-.7-.56-1.26-1.26-1.26h-5.05c-.63,0-1.16.46-1.25,1.08l-2.72,18.37-.02-.49c0,1.45-1.57,2.31-2.65,1.57-4.45-4.92-7.17-11.43-7.17-18.56,0-15.27,12.43-27.7,27.7-27.7s27.7,12.43,27.7,27.7c0,7.06-2.66,13.51-7.03,18.41Z"/>
    </g>
    <g>
      <path class="cls-1" d="m8.1,107.59c-2.6-1.47-4.6-3.57-6-6.3s-2.1-5.93-2.1-9.6.7-6.86,2.1-9.57,3.4-4.81,6-6.28,5.63-2.2,9.1-2.2c4.37,0,8.13,1.2,11.3,3.6.5.4.85.8,1.05,1.2s.3.9.3,1.5c0,.87-.24,1.61-.73,2.23-.48.62-1.08.92-1.77.92-.47,0-.88-.06-1.23-.17-.35-.12-.74-.33-1.17-.62-1.33-.87-2.57-1.49-3.7-1.88-1.13-.38-2.35-.58-3.65-.58-3.2,0-5.61.99-7.23,2.97-1.62,1.98-2.42,4.94-2.42,8.88,0,7.93,3.22,11.9,9.65,11.9,1.23,0,2.4-.19,3.5-.58,1.1-.38,2.38-1.01,3.85-1.88.5-.3.92-.51,1.25-.62.33-.12.72-.17,1.15-.17.7,0,1.29.31,1.77.92.48.62.73,1.36.73,2.23,0,.6-.11,1.11-.33,1.52-.22.42-.56.81-1.02,1.17-3.17,2.4-6.93,3.6-11.3,3.6-3.47,0-6.5-.73-9.1-2.2Z"/>
      <path class="cls-1" d="m53.12,86.81c1.73,1.75,2.6,4.43,2.6,8.03v11.3c0,1.1-.32,1.96-.95,2.58-.63.62-1.52.92-2.65.92-1.07,0-1.93-.33-2.58-.97-.65-.65-.98-1.49-.98-2.53v-.35c-.5,1.23-1.33,2.2-2.5,2.9-1.17.7-2.53,1.05-4.1,1.05-1.67,0-3.17-.33-4.52-1-1.35-.67-2.42-1.6-3.2-2.8-.78-1.2-1.18-2.53-1.18-4,0-1.8.46-3.22,1.38-4.25.92-1.03,2.39-1.78,4.43-2.25,2.03-.47,4.82-.7,8.35-.7h1.3v-.9c0-1.4-.31-2.42-.93-3.05-.62-.63-1.64-.95-3.07-.95s-3.5.5-6.2,1.5c-.77.37-1.42.55-1.95.55-.73,0-1.32-.26-1.75-.77-.43-.52-.65-1.19-.65-2.03,0-.67.15-1.22.45-1.65.3-.43.78-.83,1.45-1.2,1.17-.63,2.59-1.13,4.27-1.5,1.68-.37,3.34-.55,4.98-.55,3.6,0,6.27.88,8,2.62Zm-5.95,16.25c.9-.98,1.35-2.26,1.35-3.82v-.85h-.85c-2.7,0-4.59.22-5.67.65-1.08.43-1.62,1.22-1.62,2.35,0,.93.31,1.69.92,2.28.62.58,1.39.88,2.33.88,1.47,0,2.65-.49,3.55-1.48Z"/>
      <path class="cls-1" d="m64.9,109.24c-1.5-.33-2.82-.87-3.95-1.6-.5-.3-.88-.7-1.15-1.2-.27-.5-.4-1.07-.4-1.7,0-.77.22-1.41.65-1.93.43-.52.97-.77,1.6-.77.43,0,.87.08,1.3.22.43.15.88.33,1.35.53.93.43,1.85.77,2.75,1.02.9.25,2.02.38,3.35.38,1.17,0,2.07-.18,2.73-.55.65-.37.97-.87.97-1.5,0-.47-.14-.84-.42-1.12-.28-.28-.81-.54-1.58-.77s-1.98-.52-3.65-.85c-2.97-.57-5.1-1.42-6.4-2.55-1.3-1.13-1.95-2.72-1.95-4.75,0-1.5.46-2.85,1.38-4.05.92-1.2,2.17-2.14,3.77-2.83,1.6-.68,3.4-1.03,5.4-1.03,1.43,0,2.83.18,4.2.55s2.58.88,3.65,1.55c1.03.63,1.55,1.57,1.55,2.8,0,.8-.22,1.47-.65,2-.43.53-.97.8-1.6.8-.77,0-1.68-.3-2.75-.9-.83-.43-1.59-.76-2.28-.98-.68-.22-1.49-.33-2.42-.33-1.03,0-1.85.19-2.45.58-.6.38-.9.91-.9,1.58,0,.7.35,1.23,1.05,1.6.7.37,2.05.73,4.05,1.1,2.23.43,3.98.96,5.25,1.58,1.27.62,2.18,1.39,2.75,2.32.57.93.85,2.12.85,3.55,0,2.37-.97,4.25-2.92,5.65-1.95,1.4-4.56,2.1-7.83,2.1-2.03,0-3.8-.17-5.3-.5Z"/>
      <path class="cls-1" d="m101.4,104.89c.47.43.7,1.07.7,1.9,0,.97-.38,1.7-1.15,2.2s-1.87.7-3.3.6l-1.4-.1c-5.83-.47-8.75-3.52-8.75-9.15v-9.9h-2c-1.1,0-1.93-.24-2.5-.72-.57-.48-.85-1.17-.85-2.08s.28-1.64.85-2.12c.57-.48,1.4-.72,2.5-.72h2v-3.9c0-1.1.34-1.97,1.03-2.6.68-.63,1.61-.95,2.78-.95s2.08.32,2.75.95c.67.63,1,1.5,1,2.6v3.9h3.5c2.27,0,3.4.95,3.4,2.85,0,.9-.28,1.59-.85,2.08-.57.48-1.42.72-2.55.72h-3.5v10.45c0,1,.23,1.76.7,2.28s1.15.81,2.05.88l1.4.1c1,.07,1.73.32,2.2.75Z"/>
      <path class="cls-1" d="m105.89,108.74c-.72-.6-1.07-1.48-1.07-2.65v-28.7c0-1.17.36-2.05,1.07-2.65.72-.6,1.62-.9,2.73-.9s1.96.3,2.67.9c.72.6,1.08,1.48,1.08,2.65v28.7c0,1.17-.36,2.05-1.08,2.65-.72.6-1.61.9-2.67.9s-2.01-.3-2.73-.9Z"/>
      <path class="cls-1" d="m139.03,102.84c.42.53.62,1.22.62,2.05,0,.57-.17,1.09-.5,1.58-.33.48-.8.89-1.4,1.22-1.13.6-2.45,1.09-3.95,1.48s-2.88.58-4.15.58c-2.67,0-4.99-.52-6.97-1.55-1.98-1.03-3.51-2.51-4.58-4.42-1.07-1.92-1.6-4.17-1.6-6.77s.52-4.72,1.55-6.65c1.03-1.93,2.47-3.44,4.3-4.53,1.83-1.08,3.92-1.62,6.25-1.62s4.19.49,5.88,1.48c1.68.98,2.99,2.38,3.92,4.2s1.4,3.94,1.4,6.38c0,.73-.17,1.29-.53,1.67-.35.38-.84.58-1.47.58h-14c.23,1.97.83,3.39,1.8,4.27.97.88,2.35,1.33,4.15,1.33.97,0,1.83-.12,2.6-.35s1.62-.55,2.55-.95c.47-.2.92-.38,1.35-.53.43-.15.82-.22,1.15-.22.67,0,1.21.27,1.62.8Zm-13.67-12.08c-.87.92-1.38,2.24-1.55,3.98h9.65c-.1-1.77-.54-3.1-1.33-4-.78-.9-1.89-1.35-3.33-1.35s-2.58.46-3.45,1.38Z"/>
    </g>
  </g>
</svg>